<svg width="88" height="88" viewBox="0 0 88 88" fill="none" xmlns="http://www.w3.org/2000/svg">
<path fill-rule="evenodd" clip-rule="evenodd" d="M62.5 62.5C62.5 55.5963 68.0963 50 75 50C81.9037 50 87.5 55.5963 87.5 62.5C87.5 69.4037 81.9037 75 75 75C75 81.9037 69.4037 87.5 62.5 87.5C55.5963 87.5 50 81.9037 50 75C50 68.0963 55.5963 62.5 62.5 62.5ZM12.5 12.5C12.5 5.59625 18.0963 0 25 0C31.9037 0 37.5 5.59625 37.5 12.5C37.5 19.4037 31.9037 25 25 25C25 31.9037 19.4037 37.5 12.5 37.5C5.59625 37.5 0 31.9037 0 25C0 18.0963 5.59625 12.5 12.5 12.5ZM25 22.5C30.5225 22.5 35 18.0225 35 12.5C35 6.9775 30.5225 2.5 25 2.5C19.4775 2.5 15 6.9775 15 12.5C15 18.0225 19.4775 22.5 25 22.5ZM75 72.5C80.5225 72.5 85 68.0225 85 62.5C85 56.9775 80.5225 52.5 75 52.5C69.4775 52.5 65 56.9775 65 62.5C65 68.0225 69.4775 72.5 75 72.5Z" fill="#323332"/>
</svg>
