<svg width="441" height="431" viewBox="0 0 441 431" fill="none" xmlns="http://www.w3.org/2000/svg">
<path d="M220.5 0C98.7297 0 0 98.7297 0 220.5C0 317.938 63.1733 400.571 150.8 429.722C161.822 431.741 165.846 424.931 165.846 419.117C165.846 413.868 165.644 396.48 165.536 378.069C104.221 391.393 91.2603 352.068 91.2603 352.068C81.2207 326.605 66.7796 319.822 66.7796 319.822C46.7404 306.148 68.2999 306.417 68.2999 306.417C90.4386 307.952 102.094 329.135 102.094 329.135C121.77 362.834 153.72 353.091 166.263 347.438C168.267 333.226 173.974 323.483 180.26 317.992C131.312 312.42 79.821 293.498 79.821 209.006C79.821 184.916 88.4209 165.267 102.498 149.831C100.25 144.232 92.66 121.797 104.678 91.4489C104.678 91.4489 123.17 85.5273 165.321 114.059C182.897 109.147 201.752 106.724 220.5 106.643C239.233 106.724 258.102 109.173 275.706 114.085C317.776 85.5273 336.295 91.4756 336.295 91.4756C348.353 121.851 340.763 144.259 338.502 149.831C352.633 165.267 361.166 184.916 361.166 209.006C361.166 293.713 309.594 312.366 260.471 317.83C268.412 324.667 275.437 338.071 275.437 358.635C275.437 388.109 275.141 411.876 275.141 419.144C275.141 425.012 279.151 431.875 290.321 429.722C377.881 400.518 441 317.884 441 220.5C441 98.7297 342.27 0 220.5 0Z" fill="white"/>
</svg>
