<svg width="456" height="456" viewBox="0 0 456 456" fill="none" xmlns="http://www.w3.org/2000/svg">
<rect width="456" height="456" fill="none"/>
<path fill-rule="evenodd" clip-rule="evenodd" d="M400.288 0C431.037 0 456 24.9642 456 55.7122V400.288C456 431.036 431.036 456 400.288 456H55.7122C24.9642 456 0 431.036 0 400.288V55.7122C0 24.9642 24.9633 0 55.7122 0H400.288V0ZM142.911 376.982V175.953H76.0781V376.982H142.911ZM383.859 376.982V261.7C383.859 199.951 350.89 171.225 306.926 171.225C271.476 171.225 255.596 190.722 246.705 204.415V175.953H179.889C180.776 194.817 179.889 376.982 179.889 376.982H246.704V264.713C246.704 258.703 247.137 252.697 248.907 248.402C253.729 236.4 264.731 223.968 283.191 223.968C307.358 223.968 317.041 242.41 317.041 269.423V376.982H383.859V376.982ZM109.946 79.018C87.08 79.018 72.1406 94.0509 72.1406 113.754C72.1406 133.043 86.6258 148.49 109.061 148.49H109.493C132.796 148.49 147.301 133.043 147.301 113.754C146.869 94.0785 132.837 79.0608 109.946 79.018V79.018Z" fill="white"/>
</svg>
