<svg width="252" height="216" viewBox="0 0 252 216" fill="none" xmlns="http://www.w3.org/2000/svg">
<rect width="252" height="216" fill="none"/>
<path fill-rule="evenodd" clip-rule="evenodd" d="M212.207 17.8062C202.777 7.08517 189.34 0.25442 174.47 0.00690202C145.918 -0.468336 122.768 23.658 122.768 53.8923C122.768 58.1833 123.225 62.3676 124.107 66.3844C81.139 63.5973 43.0429 41.2224 17.5442 7.49483C13.0939 15.5767 10.5437 25.0227 10.5437 35.1414C10.5437 54.2969 19.6711 71.2973 33.5437 81.335C25.069 80.9609 17.0969 78.3954 10.1266 74.1866C10.1216 74.4167 10.1216 74.6468 10.1216 74.8809C10.1216 101.632 27.943 124.073 51.5945 129.301C47.2563 130.531 42.6888 131.174 37.9739 131.143C34.6424 131.121 31.403 130.751 28.2467 130.088C34.8251 152.026 53.9179 168.035 76.5425 168.564C58.8483 183.252 36.5564 192 12.3329 191.95C8.15976 191.941 4.0446 191.671 0 191.153C22.8803 206.852 50.056 215.992 79.2527 216C174.349 216.025 226.353 133.268 226.353 61.4868C226.353 59.1317 226.301 56.7892 226.203 54.4581C236.304 46.9312 245.069 37.4941 252 26.7179C242.729 30.8971 232.764 33.6728 222.307 34.8371C232.98 28.2681 241.179 17.7547 245.039 5.14732C235.048 11.2058 223.984 15.5506 212.207 17.8062Z" fill="white"/>
</svg>
